<svg id="Calque_1" data-name="Calque 1" xmlns="http://www.w3.org/2000/svg" viewBox="0 0 364 247"><path d="M94.37,28.49C5.38,132.43,3.63,134.65,4,138.05l.33,3.27,13.61.26,13.62.39L72,94.25C98,63.66,113.32,46.53,114.74,46.53s16.78,17.13,42.81,47.72L198.18,142h12.63c12.86,0,15.15-.78,15.15-5.23,0-1.31-5.89-9.15-13.08-17.52-9.25-10.72-13.07-16.08-13.07-18.3,0-4.19,43.68-54.78,46.73-54.13,1.2.26,20.37,21.7,42.48,47.72L329.44,142h13.07c12.31,0,13.07-.13,14.27-2.88s-1.2-5.88-39.43-51.12c-22.44-26.41-47.5-55.69-55.67-65.1C248.39,7.83,246.43,6,244.47,7.31c-1.19.78-15.68,17.26-32.13,36.74C190.66,69.54,181.73,79.21,180.21,79c-1.2-.26-16.12-16.73-33.12-36.73S115.5,6,114.85,6,104.94,16.07,94.37,28.49Z"/><path d="M99.6,88.37v8l6.32-.39,6.21-.39V81.18l-6.21-.4-6.32-.39Z"/><path d="M117.46,82.35a29.38,29.38,0,0,0-.21,7.45l.32,5.76,6.32.39,6.21.39V80.52h-6C120,80.52,117.9,81.05,117.46,82.35Z"/><path d="M231.62,88l.33,7.59h12l.33-7.59.32-7.45H231.29Z"/><path d="M249.92,88.37v8l6.32-.39,6.21-.39V81.18l-6.21-.4-6.32-.39Z"/><path d="M99.6,109.29v8l6.32-.39,6.21-.39V102.09l-6.21-.39-6.32-.39Z"/><path d="M117.46,103.27a29.38,29.38,0,0,0-.21,7.45l.32,5.76,6.32.39,6.21.39V101.44h-6C120,101.44,117.9,102,117.46,103.27Z"/><path d="M231.84,103.27a28.77,28.77,0,0,0-.22,7.45l.33,5.76,6.31.39,6.21.39V101.44h-6C234.34,101.44,232.27,102,231.84,103.27Z"/><path d="M249.92,109.29v8l6.32-.39,6.21-.39V102.09l-6.21-.39-6.32-.39Z"/><path d="M69.43,174.66c-3.6,1.7-4.69,5.49-4.69,16,0,11.24,1,13.33,8.61,19.21,2.94,2.23,5.66,5.5,6,7.06,1.2,5.5.65,13.73-1.09,15.82-4,5-7,1.31-7-8.76,0-7.58,0-7.58-2.94-7.19s-3,.79-3.38,8.5c-.22,4.58.22,9.42.87,10.72,2.62,5.89,15.91,6,18.52.13.54-1.3,1.09-7.32,1.09-13.46,0-12.16-.22-12.68-9.59-19.88l-4.68-3.66.33-9.28.32-9.28h3.27c3.27,0,3.27.13,3.81,8.5.33,5.62,1,8.5,2,8.36,4.69-.39,4.58-.26,4.58-9.54,0-8.24-.22-9.28-2.83-11.77C79.56,173.22,73.68,172.56,69.43,174.66Z"/><path d="M200.25,176.62a4.6,4.6,0,0,0,1.09,3.92c1.52,1.83,1.74,6.27,1.74,30.85V240h6.54l-.22-10.72c-.33-9.16-.11-10.86,1.52-11.25,1.42-.39,2.07,1.44,3.16,9.55s1.85,10.45,3.82,11.89,3,1.7,4.57.66c3.16-2.1,3.92-5.49,1.31-6.28-2.29-.78-2.73-2-3.82-10.46-.54-4.57-.32-6.27,1.53-9,2.07-3.14,2.29-5.23,2.29-19s-.22-15.82-2.18-18.17c-2.4-2.88-7.52-3.4-10.89-1.31-1.42.92-2.29.92-2.73,0C206.89,173.87,200.9,174.39,200.25,176.62Zm16.45,19.61v14.38l-4,.39-4.14.39V197.93c0-14.78.76-17.13,5.44-16.48C216.7,181.85,216.7,181.85,216.7,196.23Z"/><path d="M181,179.49c-.44.4-.76,2.09-.76,3.79,0,4.32-1.09,7.06-2.84,7.06-2.07,0-2,5.1.11,6,1.31.65,1.64,4,1.64,19.48,0,22.62.76,24.58,9.26,24.58,7.4,0,9.47-3.27,9-14-.33-7.45-.55-8-3-8.37s-2.73-.13-2.4,5.88c.44,7.06-1.63,11.77-4.57,10.46-1.53-.78-1.75-3.4-1.75-19.87v-19h6.1c5.12,0,6-.39,5.67-2.35-.22-1.7-1.64-2.35-6.1-2.61l-5.67-.4v-5.88c0-4.71-.32-5.75-2-5.75A3.8,3.8,0,0,0,181,179.49Z"/><path d="M90.34,191.26c-1.63,2-1.63,2.22-.11,3.27S92,198.71,92,214.92c0,21.31.66,24.19,6.43,25.5a10.88,10.88,0,0,0,6.43-.52A7.33,7.33,0,0,1,111,240c3.7,1.7,9.8-.4,11.43-3.93.66-1.3,1.09-12.16,1.09-24V190.34h-6v21c0,18.31-.21,21.31-1.85,22.49-1.31,1.05-2.29.92-3.48-.26-1.42-1.44-1.75-5.23-1.75-22.49V190.34h-6l.33,19.09c.43,22.62,0,25.76-3.38,25.1-2.29-.39-2.39-.91-2.94-21.7-.44-17-.87-21.57-2.18-22.49C93.94,188.51,92.41,188.78,90.34,191.26Z"/><path d="M135.55,190c-5.23,2.49-5.45,3.66-5.45,25.24,0,19.21.11,20.65,2.29,23,1.63,1.7,3.81,2.48,7.3,2.35,6.42-.13,9.15-3.79,8.71-11.51-.33-4.7-.65-5.36-3.27-5.75-2.83-.39-2.94-.13-2.39,3.27a10,10,0,0,1-1.09,6.28c-2.62,4.18-5.45,1.17-5.89-6.15-.32-5.75-.21-6,5-10.07,2.95-2.22,5.89-5.49,6.54-7.32,2-5,1.63-13.07-.54-16.21C144.8,190.21,138.6,188.51,135.55,190Zm6.42,8.11c2,4.44-1.85,14.25-5.55,14.51-1.09,0-1.2-14.9-.11-16.08C137.72,194.79,140.88,195.57,142,198.06Z"/><path d="M159.51,190c-5.23,2.49-5.45,3.66-5.45,25.24,0,23.79.55,25.23,9.26,25.23,6.86,0,9.26-2.88,9.26-11.11,0-5.76-.22-6.28-2.61-6.28s-2.73.65-3.05,4.71c-.44,6.14-3.49,8.89-5.88,5.23a16,16,0,0,1-1.53-6.93c0-3.66.76-5,5.23-8.89,2.94-2.49,5.88-6,6.53-7.85,2.07-5.36,1.64-14.25-.76-16.86C168.33,190.08,162.12,188.64,159.51,190Zm6.54,7.59c2.72,4.05-1.42,15-5.67,15-1,0-1.2-11.9-.22-14.9C161,195.05,164.3,194.92,166.05,197.54Z"/><path d="M235.76,190c-5.12,2.36-5.45,3.66-5.45,25.24,0,22.09.33,23.27,6.32,25.49,3.6,1.31,9.48-1.57,11-5.36.66-2,1.2-10.59,1.2-21.31,0-15.43-.33-18.57-1.85-20.79C245,190.34,238.7,188.51,235.76,190Zm6.32,25c.22,15.82,0,18.7-1.42,19.35-3.92,1.83-4.9-1.7-4.9-18.43,0-18.3.44-20.53,3.7-20C241.64,196.23,241.75,197,242.08,214.92Z"/><path d="M259.61,190.48a9.57,9.57,0,0,0-4.13,4.57c-1.42,3.92-1.64,35.56-.22,40.14,2,5.88,11,7.32,15.68,2.48,1.64-1.7,1.85-4.57,1.85-22.48,0-18.18-.21-20.79-2-22.62A10.15,10.15,0,0,0,259.61,190.48Zm7.52,22.09c.33,19.74-.11,22.49-3.38,22-2.28-.39-2.39-.91-2.72-17.91-.11-9.67,0-18.43.33-19.48a2.59,2.59,0,0,1,2.94-1.3C266.69,196.23,266.8,196.75,267.13,212.57Z"/><path d="M278.79,190.87c-2.07,1.83-2.07,2-.22,4.31,1.63,2.22,1.85,5.49,1.85,23.67V240h6l-.33-20c-.32-17.52-.21-20.39,1.42-22.35,3.81-4.45,4.36-2,4.68,20.52L292.4,240h6.54V219.24c0-16.87.32-21.05,1.63-22.36s2-1.31,3.27,0,1.63,5.49,1.63,21.7c0,18.7.11,20.14,2.18,21.45a3.44,3.44,0,0,0,4.36,0c2.61-1.7,2.72-3,.54-5.23-1.3-1.31-1.63-5.36-1.63-20.27,0-10.33-.33-19.74-.65-20.92-1.2-3.66-5.67-4.83-9.37-2.74-2.94,1.83-3.49,1.83-5.88-.13-2.18-1.7-3.16-1.7-6-.4-2.5,1.31-3.59,1.31-4.57.14C282.82,188.51,281.29,188.64,278.79,190.87Z"/><path d="M322.9,190c-4.36,2-5.44,4.71-5.44,12.68,0,9.42.21,9.81,6.31,14.39,5.56,4.18,7.63,8.62,6.1,13.59-.76,2.62-1.74,3.53-3.7,3.53-2.4,0-2.72-.65-3.05-5.62s-.65-5.62-2.72-5.23c-1.86.26-2.51,1.44-2.73,4.84-.65,7.58.55,10.33,4.8,11.77,5.12,1.69,9.91.52,11.87-3,1.74-2.88,2.18-15.95.65-18.83-.43-.91-3.27-3.53-6.21-5.88-4.9-3.79-5.33-4.71-5.33-9.28,0-6.54,3.05-9.42,5.55-5.36a8.82,8.82,0,0,1,1,5.49c-.65,3.4.76,4.83,3.81,3.66,2.84-1.05,3-9.68.33-13.47C332.16,190.34,325.84,188.51,322.9,190Z"/></svg>