<?xml version="1.0" standalone="no"?>
<!DOCTYPE svg PUBLIC "-//W3C//DTD SVG 20010904//EN"
 "http://www.w3.org/TR/2001/REC-SVG-20010904/DTD/svg10.dtd">
<svg version="1.0" xmlns="http://www.w3.org/2000/svg"
 width="500.000000pt" height="500.000000pt" viewBox="0 0 500.000000 500.000000"
 preserveAspectRatio="xMidYMid meet">

<g transform="translate(0.000000,500.000000) scale(0.100000,-0.100000)"
fill="#000000" stroke="none">
<path d="M1352 3188 c-817 -795 -833 -812 -830 -838 l3 -25 125 -2 125 -3 372
365 c238 234 379 365 392 365 12 0 154 -131 393 -365 l373 -365 116 0 c118 0
139 6 139 40 0 10 -54 70 -120 134 -85 82 -120 123 -120 140 0 32 401 419 429
414 11 -2 187 -166 390 -365 l371 -363 120 0 c113 0 120 1 131 22 11 21 -11
45 -362 391 -206 202 -436 426 -511 498 -122 115 -140 129 -158 119 -11 -6
-144 -132 -295 -281 -199 -195 -281 -269 -295 -267 -11 2 -148 128 -304 281
-157 152 -290 277 -296 277 -7 0 -91 -77 -188 -172z"/>
<path d="M1400 2730 l0 -61 58 3 57 3 0 55 0 55 -57 3 -58 3 0 -61z"/>
<path d="M1564 2776 c-3 -7 -4 -33 -2 -57 l3 -44 58 -3 57 -3 0 61 0 60 -55 0
c-38 0 -57 -4 -61 -14z"/>
<path d="M2612 2733 l3 -58 55 0 55 0 3 58 3 57 -61 0 -61 0 3 -57z"/>
<path d="M2780 2730 l0 -61 58 3 57 3 0 55 0 55 -57 3 -58 3 0 -61z"/>
<path d="M1400 2570 l0 -61 58 3 57 3 0 55 0 55 -57 3 -58 3 0 -61z"/>
<path d="M1564 2616 c-3 -7 -4 -33 -2 -57 l3 -44 58 -3 57 -3 0 61 0 60 -55 0
c-38 0 -57 -4 -61 -14z"/>
<path d="M2614 2616 c-3 -7 -4 -33 -2 -57 l3 -44 58 -3 57 -3 0 61 0 60 -55 0
c-38 0 -57 -4 -61 -14z"/>
<path d="M2780 2570 l0 -61 58 3 57 3 0 55 0 55 -57 3 -58 3 0 -61z"/>
<path d="M1123 2070 c-33 -13 -43 -42 -43 -122 0 -86 9 -102 79 -147 27 -17
52 -42 55 -54 11 -42 6 -105 -10 -121 -37 -38 -64 -10 -64 67 0 58 0 58 -27
55 -27 -3 -28 -6 -31 -65 -2 -35 2 -72 8 -82 24 -45 146 -46 170 -1 5 10 10
56 10 103 0 93 -2 97 -88 152 l-43 28 3 71 3 71 30 0 c30 0 30 -1 35 -65 3
-43 9 -65 18 -64 43 3 42 2 42 73 0 63 -2 71 -26 90 -28 22 -82 27 -121 11z"/>
<path d="M2324 2055 c-3 -8 1 -22 10 -30 14 -14 16 -48 16 -236 l0 -219 30 0
30 0 -2 82 c-3 70 -1 83 14 86 13 3 19 -11 29 -73 9 -61 17 -80 35 -91 17 -12
28 -13 42 -5 29 16 36 42 12 48 -21 6 -25 15 -35 80 -5 35 -3 48 14 69 19 24
21 40 21 145 0 106 -2 121 -20 139 -22 22 -69 26 -100 10 -13 -7 -21 -7 -25 0
-10 16 -65 12 -71 -5z m151 -150 l0 -110 -37 -3 -38 -3 0 103 c0 113 7 131 50
126 25 -3 25 -3 25 -113z"/>
<path d="M2147 2033 c-4 -3 -7 -16 -7 -29 0 -33 -10 -54 -26 -54 -19 0 -18
-39 1 -46 12 -5 15 -31 15 -149 0 -173 7 -188 85 -188 68 0 87 25 83 107 -3
57 -5 61 -28 64 -24 3 -25 1 -22 -45 4 -54 -15 -90 -42 -80 -14 6 -16 26 -16
152 l0 145 56 0 c47 0 55 3 52 18 -2 13 -15 18 -56 20 l-52 3 0 45 c0 36 -3
44 -18 44 -10 0 -22 -3 -25 -7z"/>
<path d="M1315 1943 c-15 -15 -15 -17 -1 -25 14 -8 16 -32 16 -156 0 -163 6
-185 59 -195 17 -4 43 -2 59 4 20 7 38 6 57 -1 34 -13 90 3 105 30 6 10 10 93
10 184 l0 166 -27 0 -28 0 0 -161 c0 -140 -2 -163 -17 -172 -12 -8 -21 -7 -32
2 -13 11 -16 40 -16 172 l0 159 -27 0 -28 0 3 -146 c4 -173 0 -197 -31 -192
-21 3 -22 7 -27 166 -4 130 -8 165 -20 172 -22 14 -36 12 -55 -7z"/>
<path d="M1730 1953 c-48 -19 -50 -28 -50 -193 0 -147 1 -158 21 -176 15 -13
35 -19 67 -18 59 1 84 29 80 88 -3 36 -6 41 -30 44 -26 3 -27 1 -22 -25 3 -17
-1 -36 -10 -48 -24 -32 -50 -9 -54 47 -3 44 -2 46 46 77 27 17 54 42 60 56 18
38 15 100 -5 124 -18 22 -75 35 -103 24z m59 -62 c18 -34 -17 -109 -51 -111
-10 0 -11 114 -1 123 13 13 42 7 52 -12z"/>
<path d="M1950 1953 c-48 -19 -50 -28 -50 -193 0 -182 5 -193 85 -193 63 0 85
22 85 85 0 44 -2 48 -24 48 -21 0 -25 -5 -28 -36 -4 -47 -32 -68 -54 -40 -8
11 -14 35 -14 53 0 28 7 38 48 68 27 19 54 46 60 60 19 41 15 109 -7 129 -20
18 -77 29 -101 19z m60 -58 c25 -31 -13 -115 -52 -115 -9 0 -11 91 -2 114 8
20 38 21 54 1z"/>
<path d="M2650 1953 c-47 -18 -50 -28 -50 -193 0 -169 3 -178 58 -195 33 -10
87 12 101 41 6 15 11 81 11 163 0 118 -3 142 -17 159 -18 22 -76 36 -103 25z
m58 -191 c2 -121 0 -143 -13 -148 -36 -14 -45 13 -45 141 0 140 4 157 34 153
20 -3 21 -9 24 -146z"/>
<path d="M2869 1949 c-14 -5 -31 -21 -38 -35 -13 -30 -15 -272 -2 -307 18 -45
101 -56 144 -19 15 13 17 35 17 172 0 139 -2 159 -18 173 -24 22 -70 29 -103
16z m69 -169 c3 -151 -1 -172 -31 -168 -21 3 -22 7 -25 137 -1 74 0 141 3 149
3 7 15 12 27 10 22 -3 23 -7 26 -128z"/>
<path d="M3045 1946 c-19 -14 -19 -15 -2 -33 15 -17 17 -42 17 -181 l0 -162
28 0 27 0 -3 153 c-3 134 -2 156 13 171 35 34 40 15 43 -157 l2 -167 30 0 30
0 0 159 c0 129 3 161 15 171 12 10 18 10 30 0 12 -10 15 -42 15 -166 0 -143 1
-154 20 -164 14 -8 26 -8 40 0 24 13 25 23 5 40 -12 10 -15 41 -15 155 0 79
-3 151 -6 160 -11 28 -52 37 -86 21 -27 -14 -32 -14 -54 1 -20 13 -29 13 -55
3 -23 -10 -33 -10 -42 -1 -15 15 -29 14 -52 -3z"/>
<path d="M3450 1953 c-40 -15 -50 -36 -50 -97 0 -72 2 -75 58 -110 51 -32 70
-66 56 -104 -7 -20 -16 -27 -34 -27 -22 0 -25 5 -28 43 -3 38 -6 43 -25 40
-17 -2 -23 -11 -25 -37 -6 -58 5 -79 44 -90 47 -13 91 -4 109 23 16 22 20 122
6 144 -4 7 -30 27 -57 45 -45 29 -49 36 -49 71 0 50 28 72 51 41 8 -11 12 -30
9 -42 -6 -26 7 -37 35 -28 26 8 28 74 3 103 -18 22 -76 36 -103 25z"/>
</g>
</svg>
