<svg width="15" height="25" viewBox="0 0 15 25" fill="none" xmlns="http://www.w3.org/2000/svg">
<path d="M10.622 14.9769C10.622 14.9769 8.7582 15.7825 10.622 14.9769C12.4857 14.1712 12.6291 10.9011 12.6291 10.9011C12.7724 10.9011 12.9158 10.9011 13.0592 10.9011C14.3973 10.8537 15.353 9.52675 14.8752 8.24716C14.7318 7.86802 14.684 7.77324 14.7318 7.48888C14.5406 7.10974 14.3495 6.73061 14.1105 6.39886C14.0627 6.63582 14.0627 6.92018 14.015 7.15714C13.5371 7.06235 13.107 7.01496 12.6291 6.92018C12.6291 6.778 12.6291 6.54104 12.6291 6.35147C12.5813 5.83015 12.3423 5.40362 12.0078 5.02448C11.9123 4.9297 11.8645 4.83491 11.8645 4.69273C11.9122 3.88706 11.2432 3.17618 10.4308 3.12879C9.61839 3.034 8.85377 3.6501 8.71041 4.40838C8.71041 4.50316 8.71041 4.55056 8.71041 4.64534C8.94935 4.64534 9.18829 4.64534 9.47503 4.64534C9.47503 4.59795 9.52281 4.50316 9.52281 4.45577C9.61839 4.07663 10.0007 3.83967 10.4308 3.88706C10.8131 3.93446 11.0521 4.2662 11.0998 4.64534C11.0998 5.02448 10.8609 5.35623 10.4786 5.45101C10.383 5.45101 10.2396 5.45101 10.1441 5.45101C8.71041 5.45101 7.27675 5.45101 5.84309 5.45101C4.79173 5.45101 4.21827 4.97709 4.02711 3.93446C4.02711 3.93446 4.02711 3.88706 3.97933 3.88706C3.74038 3.88706 3.50144 3.88706 3.21471 3.88706C3.2625 4.12403 3.31028 4.36099 3.35807 4.59795C3.35807 4.69273 3.35807 4.78752 3.31028 4.83491C2.68903 5.35623 2.4023 6.01972 2.45009 6.82539C2.45009 6.87278 2.45009 6.92018 2.45009 6.92018C1.92441 7.01496 1.49431 7.06235 1.06422 7.15714C0.920849 6.06711 0.634117 4.97709 0.968638 3.83967C1.5421 2.03876 3.16692 0.759169 5.12625 0.759169C7.99358 0.759169 10.8131 0.759169 13.6804 0.759169C14.015 0.759169 14.1583 0.901346 14.1583 1.23309C14.1583 2.74965 14.1105 4.2662 14.1105 5.73537C14.1105 5.97233 14.0627 6.20929 14.0627 6.44625C14.3017 6.778 14.5406 7.15714 14.684 7.53628C14.684 7.44149 14.7318 7.34671 14.7318 7.20453L14.9229 1.94398C14.9229 1.70702 14.9229 1.47005 14.9229 1.23309C14.9229 0.474815 14.4451 0.000891028 13.6326 0.000891028C10.8131 0.000891028 7.94579 0.000891028 5.12625 0.000891028C2.64124 -0.0465013 0.49075 1.8018 0.0606522 4.3136C-0.082714 5.07187 0.0606522 5.83015 0.15623 6.58843C0.204018 6.96757 0.251807 7.29931 0.299596 7.67845C0.299596 7.77324 0.299596 7.86802 0.251807 7.96281C-0.465024 9.33719 0.442962 10.8537 2.01999 10.9011C2.11557 10.9011 2.25893 10.9011 2.4023 10.9011C2.30672 12.6073 2.97576 13.9816 4.45721 14.9295C4.36164 14.9769 4.31385 15.0243 4.26606 15.0717C1.49431 16.7304 0.108441 19.1474 0.0128635 22.3227C0.0128635 22.9388 0.0128635 23.5549 0.0128635 24.171C4.9351 24.171 9.85734 24.171 14.7796 24.171C15.4008 19.9531 13.7282 16.3986 10.622 14.9769ZM2.35451 10.0955C1.82883 10.1429 1.35095 10.0481 1.01643 9.57415C0.729694 9.14762 0.729694 8.72109 0.968638 8.34195C1.25537 7.82063 1.78105 7.72585 2.35451 7.77324C2.35451 8.05759 2.35451 8.29455 2.35451 8.57891C2.16336 8.43673 1.9722 8.34195 1.78105 8.24716C1.63768 8.43673 1.49431 8.67369 1.35095 8.86326C1.58989 9.00544 1.82883 9.19501 2.06778 9.33718C2.4023 9.57415 2.45009 9.66893 2.35451 10.0955ZM3.16692 23.3653C3.16692 21.8014 3.16692 20.2848 3.16692 18.7209C2.88019 18.7209 2.64124 18.7209 2.35451 18.7209C2.35451 20.2848 2.35451 21.8014 2.35451 23.3653C1.82883 23.3653 1.30316 23.3653 0.825271 23.3653C0.490751 20.3796 1.78105 17.2991 4.79173 15.6404C5.12625 16.2091 5.46078 16.7778 5.84309 17.3939C6.08203 17.1569 6.32097 16.92 6.51213 16.683C6.55992 16.683 6.55992 16.683 6.6077 16.7304C6.6077 16.8252 6.65549 16.9674 6.6077 17.0621C6.12982 18.7683 5.65193 20.4744 5.12625 22.1805C5.07847 22.3701 5.07847 22.4649 5.26962 22.5597C5.60414 22.7966 5.93866 23.081 6.36876 23.4127C5.26962 23.3653 4.21827 23.3653 3.16692 23.3653ZM5.60414 15.4508C5.93866 15.4982 6.2254 15.5456 6.51213 15.593C6.32097 15.7825 6.17761 15.9247 5.98645 16.1143C5.89087 15.8773 5.74751 15.6878 5.60414 15.4508ZM6.12982 22.1805C6.08203 22.1331 6.03424 22.0383 6.03424 21.9436C6.46434 20.3796 6.94223 18.863 7.37232 17.2991C7.37232 17.2517 7.4679 17.2043 7.51569 17.1569C7.56348 17.2043 7.61127 17.2517 7.65906 17.2991C8.08915 18.863 8.56704 20.3796 8.99714 21.9436C8.99714 21.9909 8.99714 22.1331 8.94935 22.1805C8.47146 22.5597 7.99358 22.9388 7.51569 23.3179C7.0378 22.8914 6.55992 22.5597 6.12982 22.1805ZM7.08559 16.1617C7.27675 16.0195 7.37232 15.9247 7.51569 15.8299C7.61127 15.9247 7.70684 16.0195 7.85021 16.1617C7.80242 16.3039 7.70684 16.446 7.51569 16.3986C7.37232 16.3039 7.22896 16.2091 7.08559 16.1617ZM13.0114 18.2469C14.1583 20.0952 14.3017 21.6118 14.2061 23.4127C13.6804 23.4127 13.2025 23.4127 12.6769 23.4127C12.6769 22.607 12.6769 21.8488 12.6769 21.0905C12.6769 20.3322 12.6769 19.5265 12.6769 18.7683C12.3901 18.7683 12.1512 18.7683 11.9123 18.7683C11.9123 20.3322 11.9123 21.8488 11.9123 23.4127C10.8609 23.4127 9.80955 23.4127 8.71041 23.4127C9.09272 23.1284 9.37945 22.844 9.71397 22.607C9.90512 22.4649 9.95291 22.3227 9.90513 22.0857C9.42724 20.427 8.94935 18.7209 8.47146 17.0621C8.42368 16.9674 8.47146 16.8252 8.47146 16.7304C8.51925 16.7304 8.51925 16.7304 8.56704 16.683C8.80598 16.92 8.99714 17.1569 9.23608 17.4413C9.61839 16.8252 9.95291 16.2565 10.2874 15.6878C11.3866 16.2565 12.2946 17.1095 13.0114 18.2469ZM8.51925 15.593C8.7582 15.5456 9.04493 15.4982 9.37945 15.4508C9.23608 15.6878 9.09272 15.8773 8.99714 16.0669C8.85377 15.9247 8.66262 15.7352 8.51925 15.593ZM11.7689 11.612C11.6733 13.3655 10.2396 14.6925 8.47146 14.7873C7.61127 14.8347 6.79886 14.8347 5.93866 14.6925C4.36164 14.4556 3.16692 12.9864 3.16692 11.4224C3.16692 9.81111 3.16692 8.19977 3.16692 6.63582C3.16692 6.1619 3.35807 5.73537 3.74038 5.45101C4.12269 5.87754 4.60058 6.1145 5.12625 6.20929C5.26962 6.20929 5.46078 6.25668 5.60414 6.25668C7.0378 6.25668 8.47146 6.25668 9.90513 6.25668C10.4786 6.25668 11.0043 6.1619 11.3866 5.68797C11.6255 5.92494 11.7689 6.25668 11.7689 6.58843C11.8167 8.24716 11.9123 9.95329 11.7689 11.612ZM12.9158 9.33718C13.1548 9.19501 13.3459 9.05283 13.5849 8.91065C13.5849 8.91065 13.5849 8.91065 13.6326 8.86326C13.4893 8.67369 13.3459 8.43673 13.2025 8.24716C13.0114 8.38934 12.8202 8.48412 12.6291 8.6263C12.6291 8.34195 12.6291 8.10498 12.6291 7.82063C13.1548 7.77324 13.6326 7.82063 13.9672 8.29455C14.2539 8.67369 14.3017 9.14762 14.0627 9.57415C13.776 10.1429 13.2503 10.2376 12.6769 10.1902C12.5335 9.71632 12.5813 9.57415 12.9158 9.33718Z" fill="black"/>
<path d="M5.50778 8.15233C5.50778 7.96276 5.31663 7.77319 5.12547 7.77319C4.93432 7.77319 4.74316 7.96276 4.74316 8.15233C4.74316 8.3419 4.93432 8.53147 5.12547 8.53147C5.36442 8.53147 5.55557 8.3419 5.50778 8.15233Z" fill="black"/>
<path d="M9.8579 8.53147C10.0491 8.53147 10.2402 8.3419 10.2402 8.15233C10.2402 7.96276 10.0491 7.77319 9.8579 7.77319C9.66674 7.77319 9.47559 7.96276 9.47559 8.15233C9.47559 8.3419 9.61895 8.53147 9.8579 8.53147Z" fill="black"/>
<path d="M9.09323 10.9011C8.94986 10.9011 8.85428 10.9011 8.71092 10.9011C8.51976 11.5646 8.32861 11.7068 7.65957 11.7068C7.37283 11.7068 7.13389 11.7068 6.84716 11.7068C6.17812 11.7068 5.98696 11.5646 5.79581 10.9011C5.70023 10.9011 5.55686 10.9011 5.4135 10.9011C5.31792 10.9011 5.17455 10.9011 4.9834 10.9011C5.03119 11.1381 5.03119 11.3277 5.12676 11.4698C5.36571 12.0385 5.79581 12.3703 6.36927 12.4177C6.36927 12.4177 6.99052 12.4651 7.27726 12.4651C7.37283 12.4651 7.42062 12.4651 7.5162 12.4651C8.08966 12.4651 8.71092 12.2755 9.14102 11.849C9.28438 11.7542 9.37996 11.612 9.42775 11.4698C9.52333 11.2803 9.52333 11.0907 9.57111 10.9011C9.33217 10.9011 9.1888 10.9011 9.09323 10.9011Z" fill="black"/>
<path d="M5.50778 8.15233C5.50778 8.3419 5.31663 8.53147 5.12547 8.53147C4.93432 8.53147 4.74316 8.3419 4.74316 8.15233C4.74316 7.96276 4.93432 7.77319 5.12547 7.77319C5.31663 7.77319 5.50778 7.91537 5.50778 8.15233Z" fill="black"/>
<path d="M9.8579 8.53147C9.66674 8.53147 9.47559 8.3419 9.47559 8.15233C9.47559 7.96276 9.66674 7.77319 9.8579 7.77319C10.0491 7.77319 10.2402 7.96276 10.2402 8.15233C10.2402 8.38929 10.0491 8.53147 9.8579 8.53147Z" fill="black"/>
</svg>
