<svg width="30" height="31" viewBox="0 0 30 31" fill="none" xmlns="http://www.w3.org/2000/svg">
<path d="M1.97814 10.6799C1.19391 10.4571 1.01833 10.211 1.00663 9.41378C1.00663 9.17931 0.994921 8.94484 1.00663 8.71038C1.03004 8.13594 1.428 7.74907 2.00155 7.73735C2.52827 7.72563 3.05499 7.73735 3.58171 7.73735C3.67535 7.73735 9.36396 7.72563 9.6917 7.72563C9.6917 7.60839 9.6917 7.49116 9.6917 7.37393C9.6917 5.29891 9.6917 3.21217 9.6917 1.13716C9.6917 0.375144 10.0663 0 10.8154 0C13.6129 0 16.4103 0 19.2078 0C19.9452 0 20.3198 0.375144 20.3198 1.12543C20.3198 3.20045 20.3198 5.28719 20.3198 7.3622C20.3198 7.47944 20.3198 7.59667 20.3198 7.72563C20.6475 7.72563 27.3545 7.74907 27.9748 7.73735C28.2909 7.73735 28.5718 7.83114 28.7825 8.07732C29.1336 8.47591 29.1453 9.91787 28.7825 10.3047C28.6069 10.4923 28.3377 10.5861 28.0685 10.7502C28.0685 11.946 28.0685 13.2238 28.0685 14.5368C28.2558 14.5368 28.443 14.5251 28.6186 14.5368C29.3443 14.572 29.9881 15.1582 29.9764 15.8967C29.953 17.7256 30.1051 19.5661 29.8476 21.3949C29.8359 21.4887 29.8593 21.5825 29.8827 21.6763C30.2573 22.9541 29.3911 24.1734 28.0568 24.2085C27.7993 24.2085 27.6705 24.2906 27.5418 24.5133C27.3779 24.8064 27.1321 25.0526 26.9097 25.3457C26.9799 25.4395 27.0736 25.545 27.1672 25.6622C27.729 26.3656 28.0217 27.1628 28.0334 28.0655C28.0451 28.7103 28.0334 29.355 28.0334 30.0115C25.4583 30.0115 22.8949 30.0115 20.2964 30.0115C20.3666 29.0033 20.1676 27.9834 20.4603 26.9869C20.6475 26.3539 20.987 25.8146 21.4201 25.3691C21.1626 25.0057 20.9167 24.654 20.6709 24.314C20.6358 24.2554 20.5305 24.232 20.4485 24.232C19.8282 24.2437 19.3015 24.0444 18.8684 23.5755C18.5875 23.8803 18.3182 24.1851 18.0842 24.4547C18.3768 24.9236 18.7279 25.3574 18.9386 25.8615C19.1493 26.3539 19.2664 26.9049 19.3015 27.4441C19.36 28.2882 19.3132 29.144 19.3132 30.0115C16.422 30.0115 13.5426 30.0115 10.6398 30.0115C10.6398 29.144 10.6398 28.2765 10.6398 27.3855C10.3004 27.5848 9.98432 27.7724 9.65659 27.96C9.65659 28.6165 9.65659 29.2964 9.65659 29.9998C7.0815 29.9998 4.52982 29.9998 1.91961 29.9998C1.91961 29.5192 1.8845 29.0385 1.93132 28.5579C1.96643 28.1241 1.84938 27.8896 1.43971 27.6669C0.479903 27.1511 0.011705 26.2835 0 25.1933C0.0351149 23.3879 0.0351149 21.606 0.0468198 19.8123C0.0585248 18.2648 0.655477 16.9636 1.77915 15.9202C1.91961 15.7912 1.97814 15.6623 1.97814 15.4747C1.96643 13.8803 1.97814 12.286 1.97814 10.6799ZM18.4119 20.4336C18.4119 19.953 18.4119 19.4723 18.4119 19.0034C18.4119 18.5696 18.2363 18.4055 17.8032 18.4055C17.0658 18.4055 16.3167 18.4055 15.5793 18.4055C14.7716 18.4055 14.0811 18.1359 13.4841 17.5732C13.4022 17.4911 13.25 17.4325 13.133 17.4325C12.2902 17.4325 11.6581 18.0421 11.6464 18.8744C11.6347 19.8592 11.623 20.8439 11.6464 21.8287C11.6698 23.0362 12.5126 24.021 13.7065 24.1499C14.5727 24.2437 15.4622 24.2437 16.3284 24.1499C17.5574 24.021 18.3768 23.0128 18.4119 21.7818C18.4236 21.3363 18.4119 20.8791 18.4119 20.4336ZM20.2847 18.5696C20.7412 16.2602 18.9971 13.8217 16.6444 13.6107C15.6729 13.5169 14.6897 13.5169 13.7299 13.5755C11.8337 13.6928 10.3355 14.9472 9.85557 16.7408C9.6917 17.3504 9.65659 17.9718 9.76193 18.5931C10.0077 18.5227 10.2184 18.4407 10.4408 18.4172C10.6398 18.3938 10.7334 18.3469 10.8037 18.1359C11.0846 17.2684 11.6932 16.7408 12.5711 16.5181C12.6296 16.5063 12.6882 16.4829 12.735 16.4595C12.6882 16.1312 12.6413 15.8147 12.5945 15.4864C12.9574 15.4864 13.25 15.4864 13.5426 15.4864C13.5543 15.545 13.566 15.5802 13.566 15.6154C13.765 16.7994 14.4673 17.3973 15.6729 17.3973C16.3752 17.3973 17.0775 17.3973 17.7798 17.3973C18.4236 17.3973 18.9035 17.6552 19.2195 18.2297C19.2546 18.3 19.3366 18.3586 19.4068 18.3821C19.6877 18.4641 19.9804 18.511 20.2847 18.5696ZM8.87235 19.4254C8.87235 19.4372 8.88406 19.402 8.87235 19.3785C8.73189 18.4172 8.66166 17.4559 8.91917 16.4946C8.93088 16.436 8.86065 16.307 8.80212 16.2719C8.53291 16.1078 8.2637 15.9554 7.98278 15.8264C7.16343 15.4513 6.29726 15.4747 5.4311 15.4864C2.98476 15.4981 1.07686 17.3387 1.03004 19.8006C0.994921 21.5825 1.01833 23.3762 1.01833 25.1581C1.01833 25.2636 1.03004 25.3691 1.04174 25.4746C1.12368 26.1077 1.63869 26.7525 2.09519 26.8697C2.42292 26.3304 2.75066 25.8029 3.09011 25.2519C2.48145 24.7009 2.06007 23.9741 2.00155 23.1065C1.94302 22.2625 1.94302 21.4067 2.00155 20.5626C2.07178 19.5075 2.8443 18.6986 3.87434 18.4641C3.93286 18.4524 4.00309 18.4172 4.04991 18.4055C4.00309 18.0773 3.94457 17.7725 3.89775 17.4325C4.19037 17.4325 4.41277 17.4442 4.63516 17.4325C4.83414 17.4208 4.89267 17.4911 4.91608 17.6904C5.02142 18.6048 5.78225 19.3199 6.69523 19.3668C7.05809 19.3785 7.42094 19.3668 7.77209 19.3785C8.12324 19.3668 8.48609 19.402 8.87235 19.4254ZM29.04 20.5157C29.04 19.0034 29.04 17.4911 29.04 15.9788C29.04 15.6388 28.8293 15.4864 28.443 15.4864C26.8395 15.4864 25.2476 15.4864 23.644 15.4864C22.9534 15.4864 22.2979 15.6505 21.6776 15.9788C21.1157 16.2719 21.1157 16.2719 21.2211 16.8932C21.2211 16.9167 21.2328 16.9518 21.2328 16.9753C21.2328 17.6083 21.2328 18.2297 21.2328 18.8627C21.6425 18.6869 22.0287 18.5227 22.4033 18.3703C22.3565 18.0773 22.3096 17.7607 22.2628 17.4325C22.614 17.4325 22.9183 17.4325 23.2226 17.4325C23.2343 17.5145 23.2577 17.5732 23.2577 17.6435C23.4099 18.6634 24.1473 19.3199 25.1656 19.3434C25.6104 19.3551 26.0669 19.3434 26.5117 19.3434C27.1438 19.3434 27.612 19.6013 27.9163 20.164C27.9514 20.2226 28.0099 20.293 28.0685 20.3164C28.3728 20.3985 28.6771 20.4454 29.04 20.5157ZM27.1321 21.9342C27.1204 21.9342 27.1087 21.9342 27.097 21.9342C27.097 21.5708 27.1087 21.2074 27.097 20.8557C27.0853 20.504 26.9097 20.3398 26.5585 20.3398C26.1255 20.3398 25.7041 20.3398 25.271 20.3398C24.4399 20.3398 23.7259 20.0702 23.129 19.4958C23.0471 19.4137 22.9066 19.3668 22.8012 19.3668C21.9585 19.3668 21.3264 19.9764 21.303 20.8322C21.2913 21.477 21.2796 22.1218 21.303 22.7666C21.3381 23.9623 22.1107 24.9119 23.246 25.1112C23.7493 25.1933 24.2761 25.1698 24.7911 25.1581C25.8796 25.1229 26.7926 24.3844 27.0267 23.3058C27.1204 22.8603 27.097 22.3914 27.1321 21.9342ZM2.94965 21.8404C2.94965 22.1921 2.93794 22.5438 2.94965 22.8955C3.00817 23.9741 3.74558 24.8885 4.81073 25.0878C5.34916 25.1933 5.911 25.1698 6.47284 25.1464C7.61992 25.1112 8.60314 24.2085 8.70848 23.0596C8.77871 22.3211 8.7436 21.5825 8.7436 20.8322C8.7436 20.4923 8.54461 20.3281 8.19347 20.3281C7.76038 20.3281 7.31559 20.3281 6.88251 20.3281C6.07487 20.3164 5.38428 20.0585 4.78732 19.4958C4.7171 19.4254 4.61175 19.3668 4.51811 19.3551C3.71047 19.2848 3.00817 19.8944 2.96135 20.715C2.93794 21.1019 2.94965 21.4653 2.94965 21.8404ZM19.3483 13.7162C19.3483 10.1054 19.3483 6.52985 19.3483 2.93081C16.4572 2.93081 13.5777 2.93081 10.6983 2.93081C10.6983 6.52985 10.6983 10.1172 10.6983 13.7162C10.9324 13.5638 11.1314 13.4114 11.3538 13.3059C11.5879 13.2004 11.6347 13.048 11.6347 12.8018C11.623 9.94132 11.623 7.08085 11.623 4.22037C11.623 4.10314 11.623 3.99763 11.623 3.89212C13.9055 3.89212 16.1528 3.89212 18.4002 3.89212C18.4002 5.01755 18.4002 6.11954 18.4002 7.22153C18.4002 9.10897 18.4002 10.9964 18.4002 12.8721C18.4002 12.9776 18.4236 13.1183 18.4938 13.1769C18.7747 13.3762 19.0557 13.5286 19.3483 13.7162ZM18.4002 29.0268C18.4002 28.4641 18.4236 27.9365 18.4002 27.409C18.3534 26.518 17.9905 25.756 17.3467 25.1347C17.218 25.0174 17.1243 24.9823 16.9371 25.0292C16.6327 25.1112 16.3284 25.1581 16.0124 25.1698C15.3452 25.1933 14.6897 25.1933 14.0225 25.1698C13.7182 25.1581 13.4256 25.1112 13.133 25.0409C12.9457 24.994 12.8286 25.0292 12.6999 25.1464C11.5411 26.2249 11.5762 27.62 11.6581 29.0385C13.9172 29.0268 16.1411 29.0268 18.4002 29.0268ZM2.96135 15.0409C5.15018 14.2789 7.26878 14.232 9.31714 15.4161C9.70341 14.8651 9.7034 14.8651 9.7034 14.2438C9.7034 13.1652 9.7034 12.075 9.7034 10.9964C9.7034 10.8909 9.7034 10.7854 9.7034 10.6799C7.43264 10.6799 5.2087 10.6799 2.96135 10.6799C2.96135 12.1453 2.96135 13.5873 2.96135 15.0409ZM27.0853 14.5251C27.0853 13.2238 27.0853 11.9577 27.0853 10.6799C24.8262 10.6799 22.6023 10.6799 20.3432 10.6799C20.3432 11.8874 20.3666 13.0714 20.3315 14.2438C20.3198 14.701 20.4486 15.0527 20.7295 15.4044C20.7646 15.3809 20.8114 15.3692 20.8465 15.3457C21.7361 14.783 22.7076 14.5251 23.7611 14.5368C24.756 14.5486 25.7509 14.5368 26.7458 14.5368C26.8512 14.5251 26.9565 14.5251 27.0853 14.5251ZM27.0853 29.0268C27.0853 28.593 27.1087 28.2062 27.0853 27.8193C27.0384 27.0924 26.7224 26.4946 26.2074 26.0022C26.1372 25.9318 25.985 25.9084 25.8914 25.9318C24.7677 26.2601 23.644 26.2484 22.532 25.9318C22.4501 25.9084 22.2862 25.9318 22.2394 25.9905C21.9936 26.3187 21.7244 26.6587 21.5371 27.0221C21.2679 27.5614 21.3264 28.1593 21.303 28.7454C21.2913 28.9916 21.3732 29.0502 21.619 29.0502C23.3397 29.0385 25.072 29.0502 26.7926 29.0502C26.8746 29.0385 26.9799 29.0268 27.0853 29.0268ZM8.70848 29.0268C8.70848 28.5696 8.7436 28.1358 8.69678 27.7021C8.63825 27.0338 8.32222 26.4828 7.85402 26.0139C7.74868 25.9084 7.65504 25.8732 7.50287 25.9201C6.3909 26.2601 5.27893 26.2484 4.16696 25.9318C4.07332 25.9084 3.90945 25.9201 3.83922 25.9905C2.93794 26.8228 2.8443 27.8896 2.96135 29.0268C4.90437 29.0268 6.80058 29.0268 8.70848 29.0268ZM10.6983 1.91089C13.6012 1.91089 16.4689 1.91089 19.3483 1.91089C19.3483 1.59436 19.3483 1.30128 19.3483 0.984753C16.4572 0.984753 13.5894 0.984753 10.6983 0.984753C10.6983 1.30128 10.6983 1.60609 10.6983 1.91089ZM9.6917 8.74555C7.10491 8.74555 4.55323 8.74555 2.00155 8.74555C2.00155 9.06208 2.00155 9.36688 2.00155 9.64824C4.57664 9.64824 7.14002 9.64824 9.6917 9.64824C9.6917 9.34344 9.6917 9.05035 9.6917 8.74555ZM28.0685 8.74555C25.4817 8.74555 22.93 8.74555 20.3666 8.74555C20.3666 9.06208 20.3666 9.35516 20.3666 9.65996C22.9417 9.65996 25.4934 9.65996 28.0685 9.65996C28.0685 9.34344 28.0685 9.06208 28.0685 8.74555ZM9.6917 22.0397C9.82045 23.3058 9.52783 24.4313 8.60314 25.2519C8.94258 25.8146 9.27032 26.3422 9.59806 26.8931C10.1482 26.6118 10.593 26.1429 10.6281 25.4746C10.6866 24.4195 10.6398 23.3527 10.6398 22.2976C10.3472 22.2273 10.0428 22.1452 9.6917 22.0397ZM12.6296 10.6682C12.6296 11.3833 12.6296 12.0632 12.6296 12.708C13.2734 12.6494 13.8938 12.6025 14.5258 12.5439C14.5258 11.9226 14.5258 11.3012 14.5258 10.6682C13.8938 10.6682 13.2734 10.6682 12.6296 10.6682ZM15.5208 10.6682C15.5208 11.3247 15.5208 11.9343 15.5208 12.5439C16.1645 12.6025 16.7849 12.6494 17.417 12.708C17.417 12.0398 17.417 11.3598 17.417 10.6682C16.7849 10.6682 16.1645 10.6682 15.5208 10.6682ZM14.5258 7.7608C13.8704 7.7608 13.25 7.7608 12.6296 7.7608C12.6296 8.40557 12.6296 9.03863 12.6296 9.65996C13.2734 9.65996 13.8938 9.65996 14.5258 9.65996C14.5258 9.01518 14.5258 8.39385 14.5258 7.7608ZM17.4287 7.77252C16.7732 7.77252 16.1528 7.77252 15.5208 7.77252C15.5208 8.4173 15.5208 9.03863 15.5208 9.65996C16.1645 9.65996 16.7966 9.65996 17.4287 9.65996C17.4287 9.01518 17.4287 8.40558 17.4287 7.77252ZM17.417 4.86515C16.7732 4.86515 16.1528 4.86515 15.5208 4.86515C15.5208 5.50993 15.5208 6.11954 15.5208 6.76432C16.1528 6.76432 16.7732 6.76432 17.417 6.76432C17.417 6.13126 17.417 5.50993 17.417 4.86515ZM12.6413 4.86515C12.6413 5.52165 12.6413 6.14299 12.6413 6.76432C13.2851 6.76432 13.9055 6.76432 14.5258 6.76432C14.5258 6.11954 14.5258 5.50993 14.5258 4.86515C13.8938 4.86515 13.2734 4.86515 12.6413 4.86515ZM10.6515 21.266C10.6515 20.6447 10.6515 20.0233 10.6515 19.3903C10.0897 19.4137 9.68 19.8475 9.7034 20.375C9.72681 20.8908 10.1599 21.2894 10.6515 21.266ZM19.3951 21.266C19.9101 21.2894 20.3315 20.8908 20.3432 20.3633C20.3666 19.8357 19.9452 19.402 19.3951 19.3903C19.3951 20.0116 19.3951 20.6447 19.3951 21.266ZM28.0802 23.2238C28.4196 23.2355 28.6888 23.0831 28.8761 22.8017C29.0868 22.4852 29.0985 22.1452 28.9229 21.8053C28.7474 21.4887 28.4781 21.3129 28.0568 21.3129C28.0568 21.9342 28.0568 22.5321 28.0568 23.1417C28.0568 23.1534 28.0685 23.1769 28.0802 23.2238ZM20.3432 23.212C20.3432 23.001 20.3432 22.8135 20.3432 22.6142C20.3432 22.4266 20.3432 22.239 20.3432 22.0514C20.0038 22.1452 19.6994 22.2273 19.3951 22.3094C19.4302 22.8603 19.7814 23.2003 20.3432 23.212ZM11.9976 24.4664C11.8922 24.3726 11.7986 24.2906 11.6581 24.1734C11.6581 24.4195 11.6581 24.5954 11.6581 24.8299C11.7869 24.6892 11.8805 24.5837 11.9976 24.4664Z" fill="#2D2D2D"/>
<path d="M16.914 21.7817C16.715 21.7817 16.5161 21.7817 16.3054 21.7817C16.2937 21.8169 16.282 21.8404 16.282 21.8755C16.1766 22.2624 15.9659 22.4265 15.5562 22.4265C15.3573 22.4265 15.1583 22.4265 14.971 22.4265C14.9476 22.4265 14.9125 22.4265 14.8891 22.4265C14.6901 22.4265 14.4911 22.4265 14.3038 22.4265C13.9058 22.4265 13.6835 22.2507 13.5781 21.8755C13.5664 21.8404 13.5547 21.8169 13.5547 21.7817C13.344 21.7817 13.145 21.7817 12.946 21.7817C12.8875 22.3679 13.3908 22.9892 14.0112 23.0478C14.3155 23.0713 14.6199 23.0713 14.9359 23.0713C15.2519 23.083 15.5562 23.083 15.8606 23.0478C16.4692 22.9892 16.9725 22.3562 16.914 21.7817Z" fill="#2D2D2D"/>
<path d="M13.0862 20.3289C12.8285 20.3289 12.6059 20.1059 12.6176 19.8361C12.6176 19.5662 12.8285 19.355 13.098 19.355C13.3557 19.355 13.5783 19.5779 13.5666 19.8478C13.5666 20.1177 13.3557 20.3289 13.0862 20.3289Z" fill="#2D2D2D"/>
<path d="M17.4294 19.8478C17.4294 20.1177 17.2068 20.3289 16.9491 20.3289C16.6913 20.3289 16.4805 20.1059 16.4805 19.8361C16.4805 19.5662 16.7031 19.355 16.9608 19.355C17.2302 19.3667 17.4411 19.5897 17.4294 19.8478Z" fill="#2D2D2D"/>
<path d="M7.7832 11.6294C8.09951 11.6294 8.40411 11.6294 8.72042 11.6294C8.72042 11.9462 8.72042 12.2513 8.72042 12.5798C8.40411 12.5798 8.09951 12.5798 7.7832 12.5798C7.7832 12.263 7.7832 11.9579 7.7832 11.6294Z" fill="#2D2D2D"/>
<path d="M6.80246 11.6294C6.80246 11.9462 6.80246 12.2513 6.80246 12.5681C6.48614 12.5681 6.18155 12.5681 5.86523 12.5681C5.86523 12.263 5.86523 11.9579 5.86523 11.6294C6.16983 11.6294 6.46271 11.6294 6.80246 11.6294Z" fill="#2D2D2D"/>
<path d="M3.93164 11.6294C4.24795 11.6294 4.55255 11.6294 4.86886 11.6294C4.86886 11.9462 4.86886 12.2513 4.86886 12.5798C4.55255 12.5798 4.25967 12.5798 3.93164 12.5798C3.93164 12.263 3.93164 11.9579 3.93164 11.6294Z" fill="#2D2D2D"/>
<path d="M23.2559 11.6294C23.5956 11.6294 23.8885 11.6294 24.1931 11.6294C24.1931 11.9462 24.1931 12.2395 24.1931 12.5681C23.8885 12.5681 23.5839 12.5681 23.2559 12.5681C23.2559 12.2513 23.2559 11.9462 23.2559 11.6294Z" fill="#2D2D2D"/>
<path d="M21.3281 11.6294C21.6444 11.6294 21.949 11.6294 22.2653 11.6294C22.2653 11.9462 22.2653 12.2513 22.2653 12.5798C21.9607 12.5798 21.6562 12.5798 21.3281 12.5798C21.3281 12.263 21.3281 11.9579 21.3281 11.6294Z" fill="#2D2D2D"/>
<path d="M25.1914 11.6294C25.5077 11.6294 25.8006 11.6294 26.1286 11.6294C26.1286 11.9462 26.1286 12.2513 26.1286 12.5798C25.824 12.5798 25.5194 12.5798 25.1914 12.5798C25.1914 12.2513 25.1914 11.9462 25.1914 11.6294Z" fill="#2D2D2D"/>
</svg>
